<svg class="svg-icon" style="width: 1em; height: 1em;vertical-align: middle;fill: currentColor;overflow: hidden;" viewBox="0 0 1024 1024" version="1.1" xmlns="http://www.w3.org/2000/svg"><path d="M315.306667 705.664a341.333333 341.333333 0 1 1 393.429333 0l88.874667 203.093333a21.333333 21.333333 0 0 1-19.584 29.909334H245.973333a21.333333 21.333333 0 0 1-19.584-29.866667l88.874667-203.136z m287.36-29.568l56.832-40.149333a256 256 0 1 0-294.954667 0l56.789333 40.149333L343.808 853.333333h336.384l-77.525333-177.237333zM346.410667 468.053333l82.773333-20.693333a85.333333 85.333333 0 0 0 165.632 0l82.773333 20.693333a170.752 170.752 0 0 1-331.178666 0z"  /></svg>